<svg width="952" height="957" viewBox="0 0 952 957" fill="none" xmlns="http://www.w3.org/2000/svg">
<path d="M279.538 989.026C228.045 986.622 125.934 973.837 66.2972 951.156C46.1633 944.258 31.6175 936.672 27.0897 928.611C-6.58882 892.633 0.655456 836.563 0.655456 793.579C0.655456 746.291 4.56261 710.896 27.7191 667.793C52.2427 622.145 39.4746 602.459 40.0628 549.052C40.5784 502.229 111.962 506.128 111.962 459.443C111.962 433.492 76.1043 364.87 65.797 341.421C40.7854 284.519 48.6381 229.92 79.9582 177.254C128.605 95.4522 188.973 62.5809 295.209 61.5529C350.693 61.016 393.716 69.5306 446.891 81.7236C512.196 96.698 555.508 76.0182 611.161 48.6661C667.078 21.1839 745.946 -32.5162 802.18 26.8146C891.124 120.658 891.931 237.112 859.139 351.226C850.249 382.165 844.663 410.734 844.663 442.554C844.663 467.973 875.036 472.769 896.903 484.016C921.369 496.6 938.953 499.842 949.142 525.758C962.979 560.954 922.907 602.105 907.287 631.654C877.32 688.344 878.277 757.717 895.644 816.832C923.548 911.812 880.276 1033.57 757.179 1052.72C710.358 1060 662.493 1060 615.149 1060H614.622C564.974 1060 539.907 1037.23 499.445 1017.42C471.298 1003.64 441.5 1005.99 410.701 1001.73C369.85 996.072 332.27 989.556 290.997 989.405C290.513 989.404 290.029 989.403 289.544 989.403C287.005 989.403 283.629 989.275 279.538 989.026Z" fill="#F3AFE4" fill-opacity="0.76"/>
</svg>
