<svg width="113" height="52" viewBox="0 0 113 52" fill="none" xmlns="http://www.w3.org/2000/svg">
<path d="M8.99907 38.5L56.5 0.639393L104.001 38.5H8.99907Z" fill="#C4C4C4" fill-opacity="0.03" stroke="black"/>
<path d="M44.52 32.36C44.2533 32.6 43.92 32.7867 43.52 32.92C43.1333 33.04 42.7267 33.1 42.3 33.1C41.3133 33.1 40.5533 32.8333 40.02 32.3C39.4867 31.7667 39.22 31.0133 39.22 30.04V23.68H37.34V22.48H39.22V20.18H40.64V22.48H43.84V23.68H40.64V29.96C40.64 30.5867 40.7933 31.0667 41.1 31.4C41.42 31.72 41.8733 31.88 42.46 31.88C42.7533 31.88 43.0333 31.8333 43.3 31.74C43.58 31.6467 43.82 31.5133 44.02 31.34L44.52 32.36ZM51.0339 33.1C50.0206 33.1 49.1072 32.8733 48.2939 32.42C47.4806 31.9533 46.8406 31.3133 46.3739 30.5C45.9072 29.6867 45.6739 28.7667 45.6739 27.74C45.6739 26.7133 45.9072 25.7933 46.3739 24.98C46.8406 24.1667 47.4806 23.5333 48.2939 23.08C49.1072 22.6267 50.0206 22.4 51.0339 22.4C52.0472 22.4 52.9606 22.6267 53.7739 23.08C54.5872 23.5333 55.2206 24.1667 55.6739 24.98C56.1406 25.7933 56.3739 26.7133 56.3739 27.74C56.3739 28.7667 56.1406 29.6867 55.6739 30.5C55.2206 31.3133 54.5872 31.9533 53.7739 32.42C52.9606 32.8733 52.0472 33.1 51.0339 33.1ZM51.0339 31.84C51.7806 31.84 52.4472 31.6733 53.0339 31.34C53.6339 30.9933 54.1006 30.5067 54.4339 29.88C54.7672 29.2533 54.9339 28.54 54.9339 27.74C54.9339 26.94 54.7672 26.2267 54.4339 25.6C54.1006 24.9733 53.6339 24.4933 53.0339 24.16C52.4472 23.8133 51.7806 23.64 51.0339 23.64C50.2872 23.64 49.6139 23.8133 49.0139 24.16C48.4272 24.4933 47.9606 24.9733 47.6139 25.6C47.2806 26.2267 47.1139 26.94 47.1139 27.74C47.1139 28.54 47.2806 29.2533 47.6139 29.88C47.9606 30.5067 48.4272 30.9933 49.0139 31.34C49.6139 31.6733 50.2872 31.84 51.0339 31.84ZM64.693 22.4C65.6796 22.4 66.573 22.6267 67.373 23.08C68.173 23.52 68.7996 24.1467 69.253 24.96C69.7063 25.7733 69.933 26.7 69.933 27.74C69.933 28.7933 69.7063 29.7267 69.253 30.54C68.7996 31.3533 68.173 31.9867 67.373 32.44C66.5863 32.88 65.693 33.1 64.693 33.1C63.8396 33.1 63.0663 32.9267 62.373 32.58C61.693 32.22 61.133 31.7 60.693 31.02V36.88H59.273V22.48H60.633V24.56C61.0596 23.8667 61.6196 23.3333 62.313 22.96C63.0196 22.5867 63.813 22.4 64.693 22.4ZM64.593 31.84C65.3263 31.84 65.993 31.6733 66.593 31.34C67.193 30.9933 67.6596 30.5067 67.993 29.88C68.3396 29.2533 68.513 28.54 68.513 27.74C68.513 26.94 68.3396 26.2333 67.993 25.62C67.6596 24.9933 67.193 24.5067 66.593 24.16C65.993 23.8133 65.3263 23.64 64.593 23.64C63.8463 23.64 63.173 23.8133 62.573 24.16C61.9863 24.5067 61.5196 24.9933 61.173 25.62C60.8396 26.2333 60.673 26.94 60.673 27.74C60.673 28.54 60.8396 29.2533 61.173 29.88C61.5196 30.5067 61.9863 30.9933 62.573 31.34C63.173 31.6733 63.8463 31.84 64.593 31.84ZM72.6077 19H74.2877L73.9877 28.8H72.8877L72.6077 19ZM73.4477 33.1C73.1543 33.1 72.901 33 72.6877 32.8C72.4877 32.5867 72.3877 32.34 72.3877 32.06C72.3877 31.7667 72.4877 31.5267 72.6877 31.34C72.8877 31.14 73.141 31.04 73.4477 31.04C73.741 31.04 73.9877 31.14 74.1877 31.34C74.3877 31.5267 74.4877 31.7667 74.4877 32.06C74.4877 32.34 74.3877 32.5867 74.1877 32.8C73.9877 33 73.741 33.1 73.4477 33.1Z" fill="black"/>
</svg>
